<?xml version="1.0" encoding="utf-8"?>
<!-- Generator: Adobe Illustrator 23.1.0, SVG Export Plug-In . SVG Version: 6.00 Build 0)  -->
<svg version="1.1" id="Capa_1" xmlns="http://www.w3.org/2000/svg" xmlns:xlink="http://www.w3.org/1999/xlink" x="0px" y="0px"
	 viewBox="0 0 38 38" enable-background="new 0 0 38 38" xml:space="preserve">
<path id="shock_x5F_color" fill="#85DED8" d="M13,22c0-2.1,2.3-6,6-6c3.7,0,6,3.9,6,6c0,2.4-3.9,4-6,4C16.9,26,13,24.4,13,22z
	 M31,28.8c-0.5-0.2-1-0.4-1.5-0.7l-0.6-0.3c-0.4-0.2-0.8-0.4-1.2-0.6c-0.4-0.2-0.8-0.4-1.1-0.5c-0.2,0-1.2-0.5-1.9-1.2
	c0,0-0.1-0.3-0.1-0.2c-0.9,3.4-3.9,5.6-5.5,5.6c-1.2,0-4.3-1.5-5.4-5.6c-0.6,0.8-2,1.3-2,1.3c-0.4,0.2-0.8,0.4-1.2,0.6
	c-0.4,0.2-0.8,0.4-1.2,0.6c-0.3,0.1-0.6,0.3-0.9,0.4c-0.4,0.2-0.8,0.4-1.2,0.5c0,0-4.7,1.2-5,9.2h34.1C35.9,30,31,28.8,31,28.8z"/>
<path opacity="0.8" fill="#231F20" d="M36,36.9c0-0.2-0.3-5.1-3.4-7.2c-0.8-0.5-2-1.1-3.2-1.6l-0.6-0.3c-0.4-0.2-0.8-0.4-1.2-0.6
	c-0.4-0.2-0.8-0.4-1.2-0.6c-2.2-1-2.4-2-2.4-2.2c0.2-0.2,0.5-0.3,0.7-0.5c2.1-1.7,3.3-4.2,3.3-6.9l0-12.5l-1.2,0.3
	c0,0-1.2,0.3-2.6,0.3c-0.8,0-1.9-0.3-2.8-0.5c-0.4-0.1-0.8-0.2-1.2-0.3C19.7,4.1,18.6,4,18,4c-2.5,0.1-3.6,1.8-3.7,1.9L16,7
	c0,0,0.6-0.9,2.1-1c0.4,0,1.4,0.1,1.8,0.2c0.3,0.1,0.6,0.1,1,0.2c1,0.3,2.2,0.6,3.3,0.6c0.7,0,1.3,0,1.8-0.1v8
	c-0.3,0.6-1.3,2.4-3,2.9c-0.8-0.8-1.8-1.4-3-1.6V13h-2v3.1c-1.1,0.2-2.1,0.8-2.9,1.6c-1.7-0.6-2.8-2.3-3.1-2.9V6.1
	C12.2,5.5,13.6,2,18,2c1.5,0,2.9,0.3,4.1,0.6c1,0.2,2,0.4,2.9,0.4c0.8,0,2.1-0.3,3-0.5V0.4C27.1,0.6,25.6,1,25,1
	c-0.7,0-1.5-0.2-2.5-0.4C21.2,0.3,19.7,0,18,0c-5.1,0-7.4,3.8-8,5.7L10,17c0,2.6,1.1,5.1,3.1,6.8c0.3,0.2,0.6,0.5,0.9,0.7
	c0,0.2-0.2,1.3-2.4,2.3c-0.4,0.2-0.8,0.4-1.2,0.6c-0.4,0.2-0.8,0.4-1.2,0.6c-0.3,0.1-0.6,0.3-0.9,0.4c-1.2,0.5-2.3,1-3,1.5
	c-2.7,2.1-3.2,6.9-3.2,7.2L1.9,38H19h17.1L36,36.9z M25.9,18.4c-0.2,0.9-0.5,1.8-1,2.5c-0.1-0.5-0.3-1-0.6-1.5
	C24.9,19.1,25.4,18.8,25.9,18.4z M19,18c2.4,0,4,2.8,4,4c0,0.7-1.9,1.7-3.4,1.9C19.4,24,19.2,24,19,24c-0.2,0-0.4,0-0.6-0.1
	C16.9,23.7,15,22.7,15,22C15,20.8,16.6,18,19,18z M12.1,18.1c0.5,0.5,1.1,0.9,1.8,1.2c-0.3,0.5-0.5,1.1-0.7,1.6
	C12.6,20,12.3,19.1,12.1,18.1z M18.6,26c0.1,0,0.3,0,0.4,0c1.1,0,2.2-0.2,3.2-0.6c0.1,0.3,0.3,0.7,0.6,1.1c-0.3,1-1.3,2.8-3.8,3.4
	c-2.5-0.6-3.5-2.4-3.8-3.4c0.3-0.4,0.5-0.8,0.6-1.1C16.7,25.8,17.6,25.9,18.6,26z M27,36v-2h2v-2h-2v-2h-2v2h-2v2h2v2h-6H4.2
	c0.3-1.5,1-3.6,2.3-4.7C7,30.9,8,30.5,9,30.1c0.3-0.1,0.6-0.3,0.9-0.4c0.5-0.2,0.9-0.4,1.3-0.6c0.4-0.2,0.8-0.4,1.2-0.5
	c0.5-0.2,0.9-0.4,1.2-0.6c0.7,1.5,2.1,3.4,5.2,4.1l0.3,0l0.1,0c3.1-0.7,4.5-2.6,5.2-4.1c0.4,0.2,0.8,0.4,1.2,0.6
	c0.4,0.2,0.8,0.3,1.1,0.5c0.4,0.2,0.8,0.4,1.3,0.6l0.6,0.3c1,0.5,2.2,1,2.8,1.4c1.5,1.1,2.1,3.3,2.4,4.6H27z M23,14.1
	c-0.6,0-1.1-0.4-1.1-1.6c0-1.3,0.5-1.6,1.1-1.6s1.1,0.4,1.1,1.6C24.1,13.8,23.6,14.1,23,14.1z M13.9,12.5c0-1.3,0.5-1.6,1.1-1.6
	s1.1,0.4,1.1,1.6c0,1.3-0.5,1.6-1.1,1.6S13.9,13.8,13.9,12.5z"/>
</svg>
